Coordinates
version=1
nRows=7
nColumns=40
inDegrees=yes

Units are S.I. units (second, meters, Newtons, ...)
Angles are in degrees.

endheader
time	pelvis_tilt	pelvis_list	pelvis_rotation	pelvis_tx	pelvis_ty	pelvis_tz	hip_flexion_r	hip_adduction_r	hip_rotation_r	knee_angle_r	knee_angle_r_beta	ankle_angle_r	subtalar_angle_r	mtp_angle_r	hip_flexion_l	hip_adduction_l	hip_rotation_l	knee_angle_l	knee_angle_l_beta	ankle_angle_l	subtalar_angle_l	mtp_angle_l	lumbar_extension	lumbar_bending	lumbar_rotation	arm_flex_r	arm_add_r	arm_rot_r	elbow_flex_r	pro_sup_r	wrist_flex_r	wrist_dev_r	arm_flex_l	arm_add_l	arm_rot_l	elbow_flex_l	pro_sup_l	wrist_flex_l	wrist_dev_l
     38.19928571	     -4.97467385	     -6.54338845	      6.01575951	      0.97717713	      0.92916180	      0.50876673	      9.39240472	      5.93748872	    -19.38810208	     11.11362684	     11.11362684	      9.18002669	      0.48895602	     -6.36080138	     42.54942077	    -12.03586559	      4.42300847	     53.71873608	     53.71873608	      4.94663155	    -17.70032152	     11.15186121	    -13.22743730	      6.64165742	      3.67445521	     26.57067104	    -17.45090226	      2.48907317	     58.32815717	     45.15449145	      0.00000000	      0.00000000	      0.36896625	     -7.03814068	     -2.00552433	     31.36809208	     46.87051763	      0.00000000	      0.00000000
     38.21107143	     -5.10098374	     -6.64952982	      6.10334884	      0.97604346	      0.92904984	      0.50901947	      8.53688585	      6.25603477	    -19.59701605	     10.13988433	     10.13988433	      9.27173175	      1.21931657	     -6.36051277	     42.83873286	    -11.87949535	      4.28222551	     50.33180273	     50.33180273	      5.07366363	    -17.31964242	     11.49482041	    -13.19833326	      6.72605738	      3.70781177	     28.79392780	    -17.46073793	      2.25259364	     59.87737022	     45.12404257	      0.00000000	      0.00000000	     -1.02591893	     -7.07623604	     -1.95312926	     30.30902064	     46.82859709	      0.00000000	      0.00000000
     38.22285714	     -5.20418895	     -6.82876484	      6.15924319	      0.97506010	      0.92874870	      0.50919230	      7.63336153	      6.64161174	    -19.96220636	      9.13369962	      9.13369962	      9.36073219	      2.28872170	     -6.45683297	     42.99468712	    -11.79781135	      4.20931977	     46.86553848	     46.86553848	      5.26305359	    -16.63067056	     11.65654166	    -13.16146629	      6.91153361	      3.75885705	     30.96447890	    -17.50821849	      2.14192889	     61.59650947	     45.08317230	      0.00000000	      0.00000000	     -2.35704309	     -7.08537153	     -1.84824519	     29.19147549	     46.77905998	      0.00000000	      0.00000000
     38.23464286	     -5.30086513	     -7.03882183	      6.16668904	      0.97423938	      0.92824298	      0.50928752	      6.73890254	      7.04345637	    -20.39585632	      8.18689704	      8.18689704	      9.49413263	      3.54101188	     -6.62494939	     43.02547663	    -11.76446936	      4.18051106	     43.36738350	     43.36738350	      5.50021121	    -15.65209162	     11.64642169	    -13.12306107	      7.13430619	      3.90702241	     33.01690907	    -17.63233960	      2.13552013	     63.44178780	     45.03476815	      0.00000000	      0.00000000	     -3.63021947	     -7.06386299	     -1.68835100	     28.18525994	     46.71956014	      0.00000000	      0.00000000
     38.24642857	     -5.57114561	     -7.26118592	      6.08701879	      0.97332506	      0.92729911	      0.50934589	      6.27068140	      7.38168939	    -20.51328708	      7.69716639	      7.69716639	      9.74303878	      4.12850986	     -6.77427972	     43.14933421	    -11.75189991	      4.14643166	     39.89410866	     39.89410866	      5.76357331	    -14.46477454	     11.87908261	    -12.86576521	      7.35875294	      4.40734150	     35.09194108	    -18.01096645	      1.93811414	     64.64257890	     45.01300402	      0.00000000	      0.00000000	     -4.79386397	     -6.95856273	     -1.60784701	     27.65050723	     46.68132882	      0.00000000	      0.00000000
     38.25821429	     -5.53539051	     -7.39412891	      5.95772478	      0.97302396	      0.92677003	      0.50937280	      5.15897961	      7.73150196	    -20.79484749	      6.70690686	      6.70690686	      9.91352024	      5.51654103	     -6.88384858	     42.71035992	    -11.79974648	      3.91496560	     36.40287162	     36.40287162	      6.18232508	    -12.97901677	     11.95661579	    -12.95514449	      7.47477492	      4.40512363	     36.98550753	    -17.75926058	      2.03327729	     66.68324342	     44.95315840	      0.00000000	      0.00000000	     -6.22757394	     -7.04806551	     -1.40547431	     26.98414222	     46.61286667	      0.00000000	      0.00000000
     38.27000000	     -5.58470719	     -7.65107944	      5.80123412	      0.97278457	      0.92585206	      0.50931849	      4.28174222	      8.15231477	    -21.09763440	      5.98644593	      5.98644593	     10.14770073	      6.77188824	     -6.99858293	     42.36665423	    -11.96027106	      3.71466228	     33.13983544	     33.13983544	      6.58831383	    -11.44171346	     12.11552563	    -12.91852888	      7.74542003	      4.59333539	     38.79844039	    -17.76855167	      2.12261789	     68.63983438	     44.89783933	      0.00000000	      0.00000000	     -7.62298452	     -7.03147313	     -1.14577817	     26.66864545	     46.53125979	      0.00000000	      0.00000000
